<?xml version="1.0" encoding="iso-8859-1"?>
<!-- Generator: Adobe Illustrator 19.0.0, SVG Export Plug-In . SVG Version: 6.00 Build 0)  -->
<svg version="1.1" id="Capa_1" xmlns="http://www.w3.org/2000/svg" xmlns:xlink="http://www.w3.org/1999/xlink" x="0px" y="0px"
	 viewBox="0 0 512 512" style="enable-background:new 0 0 512 512;" xml:space="preserve">
<path style="fill:#65B1EF;" d="M46.048,76.224c-6.624,0-12-5.456-12-12.08C34.048,16.992,173.552,4.4,256,4.4
	c82.432,0,221.952,12.592,221.952,59.744c0,6.624-5.376,12-12,12s-12-5.376-12-12C450.704,51.776,379.856,28.4,256,28.4
	c-123.904,0-194.736,23.376-197.968,35.904C58.032,70.928,52.672,76.224,46.048,76.224z"/>
<path style="fill:#FFD93B;" d="M512,256c0,141.44-114.72,256-256,256C114.56,512,0,397.44,0,256C0,114.72,114.56,0,256,0
	C397.28,0,512,114.72,512,256z"/>
<path style="fill:#3E4347;" d="M256,425.584c-67.168,0-128.48-42.192-152.576-104.992c-2.624-6.864,0.8-14.544,7.648-17.168
	c6.848-2.64,14.544,0.784,17.168,7.648c20.496,53.408,70.64,87.92,127.76,87.92c56.192,0,107.536-35.328,127.744-87.92
	c2.64-6.864,10.368-10.256,17.184-7.648c6.864,2.64,10.272,10.336,7.648,17.184C384.432,383.392,323.12,425.584,256,425.584z"/>
<path style="fill:#F4C534;" d="M512,256c0,141.44-114.72,256-256,256c-80.64,0-152.64-37.28-199.36-95.52
	c43.84,35.2,99.36,56.16,160,56.16c141.28,0,256-114.56,256-256c0-60.64-20.96-116.16-56.32-160C474.72,103.52,512,175.36,512,256z"
	/>
<path style="fill:#65B1EF;" d="M256,123.888c-82.432,0-221.952-12.592-221.952-59.744c0-6.624,5.376-12,12-12s12,5.376,12,12
	C61.232,76.528,132.016,99.888,256,99.888c123.936,0,194.752-23.376,197.968-35.904c0-6.624,5.36-11.92,11.984-11.92
	c6.624,0,12,5.456,12,12.08C477.952,111.296,338.432,123.888,256,123.888z"/>
<path style="fill:#3E4347;" d="M216.24,214.704c0,24.368-19.648,44-44,44c-24.208,0-44-19.648-44-44s19.792-44,44-44
	C196.592,170.704,216.24,190.336,216.24,214.704z"/>
<ellipse transform="matrix(-0.6187 -0.7857 0.7857 -0.6187 154.6134 468.6534)" style="fill:#5A5F63;" cx="191.042" cy="196.804" rx="10.017" ry="7.28"/>
<path style="fill:#3E4347;" d="M383.776,214.704c0,24.368-19.648,44-44,44c-24.208,0-44-19.648-44-44s19.792-44,44-44
	C364.128,170.704,383.776,190.336,383.776,214.704z"/>
<ellipse transform="matrix(-0.6187 -0.7856 0.7856 -0.6187 425.6851 600.2834)" style="fill:#5A5F63;" cx="358.512" cy="196.842" rx="10.016" ry="7.28"/>
<g>
</g>
<g>
</g>
<g>
</g>
<g>
</g>
<g>
</g>
<g>
</g>
<g>
</g>
<g>
</g>
<g>
</g>
<g>
</g>
<g>
</g>
<g>
</g>
<g>
</g>
<g>
</g>
<g>
</g>
</svg>
