<?xml version="1.0" encoding="iso-8859-1"?>
<!-- Generator: Adobe Illustrator 19.0.0, SVG Export Plug-In . SVG Version: 6.00 Build 0)  -->
<svg version="1.1" id="Capa_1" xmlns="http://www.w3.org/2000/svg" xmlns:xlink="http://www.w3.org/1999/xlink" x="0px" y="0px"
	 viewBox="0 0 512 512" style="enable-background:new 0 0 512 512;" xml:space="preserve">
<circle style="fill:#FFD93B;" cx="256" cy="256" r="256"/>
<path style="fill:#F4C534;" d="M512,256c0,141.44-114.64,256-256,256c-80.48,0-152.32-37.12-199.28-95.28
	c43.92,35.52,99.84,56.72,160.72,56.72c141.36,0,256-114.56,256-256c0-60.88-21.2-116.8-56.72-160.72
	C474.8,103.68,512,175.52,512,256z"/>
<path style="fill:#3E4347;" d="M130.08,378.416c-0.576,21.216,23.424,31.68,53.92,36c12.256,1.696,23.968,2.752,34.64,1.984
	c23.616-1.52,50.688,2.816,75.28,12.88c11.088,4.528,23.488,7.152,36.208,5.984c32.112-2.928,52.448-35.76,51.712-56.384
	c-0.752-35.712-27.424-89.632-67.008-75.632c-23.456,11.168-93.84,30.896-120.032,20.112
	C154.272,305.52,132.608,334.352,130.08,378.416z"/>
<path style="fill:#FFFFFF;" d="M194.8,323.344c-5.488-2.416-10.592-3.904-15.392-4.688c0.08,0.336,0.192,0.736,0.272,1.072
	c9.568,24.8,40.912,29.312,76.304,25.28c34.832-3.792,64.368-13.136,72.992-44.016c-4.496-0.192-9.216,0.48-14.144,2.224
	C291.376,314.4,220.992,334.128,194.8,323.344z"/>
<path style="fill:#E24B4B;" d="M186.912,411.536c1.6-14.56,12.56-25.904,27.696-33.44c8.128-4.032,18.864-4.672,27.968-0.864
	c5.264,2.256,11.568,3.808,18.768,4c1.68-0.032,3.392,0.08,4.992-0.08c23.808-1.984,47.936,9.968,56.752,33.776
	c1.936,5.136,3.168,10.624,3.776,16.384c0.128,1.36,0.128,2.72,0.176,4.064c-11.632,0.624-22.928-1.952-33.12-6.096
	c-24.592-10.016-51.648-14.432-75.28-12.88c-9.856,0.72-20.592-0.24-31.824-1.648C186.832,413.616,186.8,412.656,186.912,411.536z"
	/>
<ellipse style="fill:#F4C534;" cx="161.936" cy="207.376" rx="86.08" ry="79.952"/>
<path style="fill:#FFFFFF;" d="M235.088,207.376c-2.24,36.448-36.8,65.984-77.2,65.984s-71.344-29.552-69.104-65.984
	c2.24-36.448,36.8-66,77.2-66S237.328,170.928,235.088,207.376z"/>
<ellipse style="fill:#3E4347;" cx="185.648" cy="207.696" rx="36.16" ry="37.92"/>
<path style="fill:#5A5F63;" d="M207.616,193.264c-1.84,2.976-6.656,3.104-10.896,0.416c-4.112-2.544-6.08-7.072-4.24-9.904
	c1.696-2.832,6.656-3.104,10.752-0.432C207.472,185.904,209.456,190.416,207.616,193.264z"/>
<ellipse style="fill:#F4C534;" cx="350.064" cy="188.912" rx="86.08" ry="79.952"/>
<path style="fill:#FFFFFF;" d="M423.216,188.912c-2.24,36.432-36.8,65.984-77.2,65.984s-71.344-29.552-69.104-65.984
	c2.24-36.448,36.8-66,77.2-66C394.496,122.928,425.44,152.48,423.216,188.912z"/>
<ellipse style="fill:#3E4347;" cx="327.616" cy="182.544" rx="36.16" ry="37.92"/>
<path style="fill:#5A5F63;" d="M349.584,168.112c-1.84,2.976-6.656,3.12-10.896,0.416c-4.096-2.544-6.08-7.072-4.24-9.904
	c1.696-2.832,6.656-3.12,10.752-0.432C349.44,160.752,351.424,165.28,349.584,168.112z"/>
<g>
</g>
<g>
</g>
<g>
</g>
<g>
</g>
<g>
</g>
<g>
</g>
<g>
</g>
<g>
</g>
<g>
</g>
<g>
</g>
<g>
</g>
<g>
</g>
<g>
</g>
<g>
</g>
<g>
</g>
</svg>
