<svg id="Flat" height="512" viewBox="0 0 512 512" width="512" xmlns="http://www.w3.org/2000/svg"><path d="m488 304c0 128.13-103.87 184-232 184s-232-55.87-232-184 103.87-280 232-280 232 151.87 232 280z" fill="#ffc70d"/><path d="m256 456c-122.746 0-223.161-51.321-231.389-168.276-.361 5.455-.611 10.892-.611 16.276 0 128.13 103.87 184 232 184s232-55.87 232-184c0-5.384-.25-10.821-.611-16.276-8.228 116.955-108.643 168.276-231.389 168.276z" fill="#f89f00"/><path d="m168.008 208a8 8 0 0 1 -4.805-14.4l23.461-17.6-23.464-17.6a8 8 0 1 1 9.594-12.8l32 24a7.992 7.992 0 0 1 0 12.8l-32 24a7.949 7.949 0 0 1 -4.786 1.6z" fill="#b46d2f"/><path d="m343.992 208a7.949 7.949 0 0 1 -4.789-1.6l-31.992-24a7.992 7.992 0 0 1 0-12.8l31.992-24a8 8 0 0 1 9.594 12.8l-23.461 17.6 23.464 17.6a8 8 0 0 1 -4.805 14.4z" fill="#b46d2f"/><path d="m144 232v16a64.079 64.079 0 0 0 64 64h96a64.079 64.079 0 0 0 64-64v-16z" fill="#ef5267"/><path d="m368 232h-224v16a63.746 63.746 0 0 0 4.7 24h214.6a63.746 63.746 0 0 0 4.7-24z" fill="#483d23"/></svg>